{
  "accessors": [
    {
      "bufferView": 2,
      "componentType": 5126,
      "count": 4790,
      "max": [
        0.08941837400197983,
        0.1478864699602127,
        0.113258957862854
      ],
      "min": [
        -0.08727844059467316,
        -0.1314217448234558,
        0.021781472489237785
      ],
      "type": "VEC3"
    },
    {
      "bufferView": 2,
      "byteOffset": 57480,
      "componentType": 5126,
      "count": 4790,
      "max": [
        0.9995772838592529,
        0.9986495971679688,
        0.9996520280838013
      ],
      "min": [
        -0.9999348521232605,
        -0.9958942532539368,
        -0.9919019937515259
      ],
      "type": "VEC3"
    },
    {
      "bufferView": 1,
      "componentType": 5126,
      "count": 4790,
      "max": [
        0.9835540652275085,
        0.9724173545837402
      ],
      "min": [
        0.037565939128398895,
        0.04428837075829506
      ],
      "type": "VEC2"
    },
    {
      "bufferView": 0,
      "componentType": 5125,
      "count": 22731,
      "type": "SCALAR"
    },
    {
      "bufferView": 2,
      "byteOffset": 114960,
      "componentType": 5126,
      "count": 3119,
      "max": [
        0.089828722178936,
        0.14805440604686737,
        0.026448911055922508
      ],
      "min": [
        -0.0879712849855423,
        -0.13181863725185394,
        -0.0645410344004631
      ],
      "type": "VEC3"
    },
    {
      "bufferView": 2,
      "byteOffset": 152388,
      "componentType": 5126,
      "count": 3119,
      "max": [
        0.999461829662323,
        0.9982293844223022,
        0.999943733215332
      ],
      "min": [
        -0.9999488592147827,
        -0.9996299147605896,
        -0.9999830722808838
      ],
      "type": "VEC3"
    },
    {
      "bufferView": 1,
      "byteOffset": 38320,
      "componentType": 5126,
      "count": 3119,
      "max": [
        0.9929466247558594,
        0.9759271144866943
      ],
      "min": [
        0.006153902970254421,
        0.040526676923036575
      ],
      "type": "VEC2"
    },
    {
      "bufferView": 0,
      "byteOffset": 90924,
      "componentType": 5125,
      "count": 11895,
      "type": "SCALAR"
    }
  ],
  "asset": {
    "extras": {
      "author": "Wittybacon (https://sketchfab.com/wittybacon)",
      "license": "CC-BY-4.0 (http://creativecommons.org/licenses/by/4.0/)",
      "source": "https://sketchfab.com/3d-models/wilson-football-f43de97cddcd466f93b69e59a56865a1",
      "title": "Wilson football"
    },
    "generator": "Sketchfab-12.64.0",
    "version": "2.0"
  },
  "bufferViews": [
    {
      "buffer": 0,
      "byteLength": 138504,
      "name": "floatBufferViews",
      "target": 34963
    },
    {
      "buffer": 0,
      "byteLength": 63272,
      "byteOffset": 138504,
      "byteStride": 8,
      "name": "floatBufferViews",
      "target": 34962
    },
    {
      "buffer": 0,
      "byteLength": 189816,
      "byteOffset": 201776,
      "byteStride": 12,
      "name": "floatBufferViews",
      "target": 34962
    }
  ],
  "buffers": [
    {
      "byteLength": 391592,
      "uri": "footballscene.bin"
    }
  ],
  "images": [
    {
      "uri": "textures/material0_baseColor.png"
    },
    {
      "uri": "textures/material0_metallicRoughness.png"
    },
    {
      "uri": "textures/material0.001_baseColor.png"
    },
    {
      "uri": "textures/material0.001_metallicRoughness.png"
    }
  ],
  "materials": [
    {
      "doubleSided": true,
      "name": "material0",
      "pbrMetallicRoughness": {
        "baseColorTexture": {
          "index": 0
        },
        "metallicFactor": 0.0,
        "metallicRoughnessTexture": {
          "index": 1
        },
        "roughnessFactor": 0.5
      }
    },
    {
      "doubleSided": true,
      "name": "material0.001",
      "pbrMetallicRoughness": {
        "baseColorTexture": {
          "index": 2
        },
        "metallicFactor": 0.0,
        "metallicRoughnessTexture": {
          "index": 3
        },
        "roughnessFactor": 0.5
      }
    }
  ],
  "meshes": [
    {
      "name": "Model.001_material0_0",
      "primitives": [
        {
          "attributes": {
            "NORMAL": 1,
            "POSITION": 0,
            "TEXCOORD_0": 2
          },
          "indices": 3,
          "material": 0,
          "mode": 4
        }
      ]
    },
    {
      "name": "Model.001_material0.001_0",
      "primitives": [
        {
          "attributes": {
            "NORMAL": 5,
            "POSITION": 4,
            "TEXCOORD_0": 6
          },
          "indices": 7,
          "material": 1,
          "mode": 4
        }
      ]
    }
  ],
  "nodes": [
    {
      "children": [
        1
      ],
      "matrix": [
        1.0,
        0.0,
        0.0,
        0.0,
        0.0,
        2.220446049250313e-16,
        -1.0,
        0.0,
        0.0,
        1.0,
        2.220446049250313e-16,
        0.0,
        0.0,
        0.0,
        0.0,
        1.0
      ],
      "name": "Sketchfab_model"
    },
    {
      "children": [
        2
      ],
      "matrix": [
        1.0,
        0.0,
        0.0,
        0.0,
        0.0,
        0.0,
        1.0,
        0.0,
        0.0,
        -1.0,
        0.0,
        0.0,
        0.0,
        0.0,
        0.0,
        1.0
      ],
      "name": "football.fbx"
    },
    {
      "children": [
        3
      ],
      "name": "RootNode"
    },
    {
      "children": [
        4,
        5
      ],
      "matrix": [
        100.0,
        0.0,
        0.0,
        0.0,
        0.0,
        -1.629206793918314e-05,
        -99.99999999999868,
        0.0,
        0.0,
        99.99999999999868,
        -1.629206793918314e-05,
        0.0,
        0.0,
        0.0,
        0.0,
        1.0
      ],
      "name": "Model.001"
    },
    {
      "mesh": 0,
      "name": "Model.001_material0_0"
    },
    {
      "mesh": 1,
      "name": "Model.001_material0.001_0"
    }
  ],
  "samplers": [
    {
      "magFilter": 9729,
      "minFilter": 9987,
      "wrapS": 10497,
      "wrapT": 10497
    }
  ],
  "scene": 0,
  "scenes": [
    {
      "name": "Sketchfab_Scene",
      "nodes": [
        0
      ]
    }
  ],
  "textures": [
    {
      "sampler": 0,
      "source": 0
    },
    {
      "sampler": 0,
      "source": 1
    },
    {
      "sampler": 0,
      "source": 2
    },
    {
      "sampler": 0,
      "source": 3
    }
  ]
}
