{
  "accessors": [
    {
      "bufferView": 2,
      "componentType": 5126,
      "count": 9218,
      "max": [
        0.7444250583648682,
        1.0077416896820068,
        -3.894001565640792e-05
      ],
      "min": [
        -0.7444250583648682,
        -0.7909419536590576,
        -0.10381636768579483
      ],
      "type": "VEC3"
    },
    {
      "bufferView": 2,
      "byteOffset": 110616,
      "componentType": 5126,
      "count": 9218,
      "max": [
        0.9998877048492432,
        1.0,
        1.0
      ],
      "min": [
        -0.9998878240585327,
        -1.0,
        -1.0
      ],
      "type": "VEC3"
    },
    {
      "bufferView": 1,
      "componentType": 5126,
      "count": 9218,
      "max": [
        0.0,
        0.0
      ],
      "min": [
        0.0,
        0.0
      ],
      "type": "VEC2"
    },
    {
      "bufferView": 0,
      "componentType": 5125,
      "count": 55296,
      "type": "SCALAR"
    },
    {
      "bufferView": 2,
      "byteOffset": 221232,
      "componentType": 5126,
      "count": 260,
      "max": [
        9.22336196899414,
        2.6422148380333965e-07,
        1.0
      ],
      "min": [
        -1.0,
        -1.071579098701477,
        -4.68511962890625
      ],
      "type": "VEC3"
    },
    {
      "bufferView": 2,
      "byteOffset": 224352,
      "componentType": 5126,
      "count": 260,
      "max": [
        0.9914448857307434,
        1.0,
        0.9873530864715576
      ],
      "min": [
        -0.9873524904251099,
        -1.0,
        -0.9914448261260986
      ],
      "type": "VEC3"
    },
    {
      "bufferView": 1,
      "byteOffset": 73744,
      "componentType": 5126,
      "count": 260,
      "max": [
        1.0001330375671387,
        1.0001329183578491
      ],
      "min": [
        0.0,
        0.0
      ],
      "type": "VEC2"
    },
    {
      "bufferView": 0,
      "byteOffset": 221184,
      "componentType": 5125,
      "count": 1548,
      "type": "SCALAR"
    },
    {
      "bufferView": 2,
      "byteOffset": 227472,
      "componentType": 5126,
      "count": 9218,
      "max": [
        0.7444250583648682,
        1.0077416896820068,
        -3.894001565640792e-05
      ],
      "min": [
        -0.7444250583648682,
        -0.7909419536590576,
        -0.10381636768579483
      ],
      "type": "VEC3"
    },
    {
      "bufferView": 2,
      "byteOffset": 338088,
      "componentType": 5126,
      "count": 9218,
      "max": [
        0.9998877048492432,
        1.0,
        1.0
      ],
      "min": [
        -0.9998878240585327,
        -1.0,
        -1.0
      ],
      "type": "VEC3"
    },
    {
      "bufferView": 1,
      "byteOffset": 75824,
      "componentType": 5126,
      "count": 9218,
      "max": [
        0.0,
        0.0
      ],
      "min": [
        0.0,
        0.0
      ],
      "type": "VEC2"
    },
    {
      "bufferView": 0,
      "byteOffset": 227376,
      "componentType": 5125,
      "count": 55296,
      "type": "SCALAR"
    }
  ],
  "asset": {
    "extras": {
      "author": "octopuslover (https://sketchfab.com/octopuslover)",
      "license": "CC-BY-4.0 (http://creativecommons.org/licenses/by/4.0/)",
      "source": "https://sketchfab.com/3d-models/shield-protection-icon-b63bc92b21a447799329e45ace08b4ff",
      "title": "Shield protection icon"
    },
    "generator": "Sketchfab-15.30.0",
    "version": "2.0"
  },
  "bufferViews": [
    {
      "buffer": 0,
      "byteLength": 448560,
      "name": "floatBufferViews",
      "target": 34963
    },
    {
      "buffer": 0,
      "byteLength": 149568,
      "byteOffset": 448560,
      "byteStride": 8,
      "name": "floatBufferViews",
      "target": 34962
    },
    {
      "buffer": 0,
      "byteLength": 448704,
      "byteOffset": 598128,
      "byteStride": 12,
      "name": "floatBufferViews",
      "target": 34962
    }
  ],
  "buffers": [
    {
      "byteLength": 1046832,
      "uri": "shield.bin"
    }
  ],
  "materials": [
    {
      "doubleSided": true,
      "name": "material",
      "pbrMetallicRoughness": {
        "baseColorFactor": [
          0.8,
          0.8,
          0.8,
          1.0
        ],
        "metallicFactor": 0.0,
        "roughnessFactor": 0.678886
      }
    },
    {
      "doubleSided": true,
      "name": "material_1",
      "pbrMetallicRoughness": {
        "baseColorFactor": [
          0.00679796,
          0.12091,
          0.0,
          1.0
        ],
        "metallicFactor": 0.0,
        "roughnessFactor": 0.5
      }
    },
    {
      "doubleSided": true,
      "name": "material_2",
      "pbrMetallicRoughness": {
        "baseColorFactor": [
          0.14614,
          0.183433,
          0.2521,
          1.0
        ],
        "metallicFactor": 0.0,
        "roughnessFactor": 0.285924
      }
    }
  ],
  "meshes": [
    {
      "name": "Object_0",
      "primitives": [
        {
          "attributes": {
            "NORMAL": 1,
            "POSITION": 0,
            "TEXCOORD_0": 2
          },
          "indices": 3,
          "material": 0,
          "mode": 4
        }
      ]
    },
    {
      "name": "Object_1",
      "primitives": [
        {
          "attributes": {
            "NORMAL": 5,
            "POSITION": 4,
            "TEXCOORD_0": 6
          },
          "indices": 7,
          "material": 1,
          "mode": 4
        }
      ]
    },
    {
      "name": "Object_2",
      "primitives": [
        {
          "attributes": {
            "NORMAL": 9,
            "POSITION": 8,
            "TEXCOORD_0": 10
          },
          "indices": 11,
          "material": 2,
          "mode": 4
        }
      ]
    }
  ],
  "nodes": [
    {
      "children": [
        1
      ],
      "matrix": [
        1.0,
        0.0,
        0.0,
        0.0,
        0.0,
        2.220446049250313e-16,
        -1.0,
        0.0,
        0.0,
        1.0,
        2.220446049250313e-16,
        0.0,
        0.0,
        0.0,
        0.0,
        1.0
      ],
      "name": "Sketchfab_model"
    },
    {
      "children": [
        2
      ],
      "name": "root"
    },
    {
      "children": [
        3
      ],
      "matrix": [
        1.0,
        0.0,
        0.0,
        0.0,
        0.0,
        2.220446049250313e-16,
        1.0,
        0.0,
        0.0,
        -1.0,
        2.220446049250313e-16,
        0.0,
        0.0,
        0.0,
        0.0,
        1.0
      ],
      "name": "GLTF_SceneRootNode"
    },
    {
      "children": [
        4,
        5,
        7
      ],
      "matrix": [
        0.7793017029762268,
        0.0,
        0.0,
        0.0,
        0.0,
        0.7793017029762268,
        0.0,
        0.0,
        0.0,
        0.0,
        0.7793017029762268,
        0.0,
        0.0,
        0.0,
        0.032143961638212204,
        1.0
      ],
      "name": "shield.001_2"
    },
    {
      "mesh": 0,
      "name": "Object_4"
    },
    {
      "children": [
        6
      ],
      "matrix": [
        0.04462672079969679,
        0.04462672252444409,
        1.6142078526963301e-09,
        0.0,
        6.529173384816194e-09,
        -8.812007994968984e-09,
        0.06311172246932888,
        0.0,
        0.04462672252444364,
        -0.04462672079969596,
        -1.0847852076612439e-08,
        0.0,
        -0.06117502599954605,
        -0.11177467554807663,
        0.04494217038154602,
        1.0
      ],
      "name": "Plane.002_0"
    },
    {
      "mesh": 1,
      "name": "Object_6"
    },
    {
      "children": [
        8
      ],
      "matrix": [
        1.2831999063491821,
        0.0,
        0.0,
        0.0,
        0.0,
        1.2831999063491821,
        0.0,
        0.0,
        0.0,
        0.0,
        1.2831999063491821,
        0.0,
        0.0,
        0.0,
        -0.04124714061617851,
        1.0
      ],
      "name": "shield_1"
    },
    {
      "mesh": 2,
      "name": "Object_8"
    }
  ],
  "scene": 0,
  "scenes": [
    {
      "name": "Sketchfab_Scene",
      "nodes": [
        0
      ]
    }
  ]
}
